<svg xmlns="http://www.w3.org/2000/svg" viewBox="0 0 42.66 46.44"><defs><style>.cls-1{fill:#fff;}</style></defs><title>Asset 1</title><g id="Layer_2" data-name="Layer 2"><g id="Layer_1-2" data-name="Layer 1"><path class="cls-1" d="M18,7.35A4.8,4.8,0,0,0,20.2,8a4.25,4.25,0,0,0,4.47-4A4.24,4.24,0,0,0,20.2,0a4.24,4.24,0,0,0-4.47,4s.31,2.88-1,3.34C13.85,7.59,16.13,7.47,18,7.35Z"/><path class="cls-1" d="M6.25,28.16a3.44,3.44,0,0,0,3.62-3.21,3.44,3.44,0,0,0-3.54-3.23,3.45,3.45,0,0,0-3.7,3.23A3.44,3.44,0,0,0,6.25,28.16Z"/><path class="cls-1" d="M9.43,29.94a3.68,3.68,0,0,0-1.92-.52H7.46a.76.76,0,0,0-.28.06,2.34,2.34,0,0,1-1.83,0,.85.85,0,0,0-.28-.06H4.92a3.64,3.64,0,0,0-1.73.51,5.22,5.22,0,0,0-1.85,2A11.58,11.58,0,0,0,0,35.8a.85.85,0,0,0,.81,1,.94.94,0,0,0,1-.71l0-.16c.06-.32.13-.63.21-.95a9,9,0,0,1,1.1-2.59l.12-.16,0,0v.55c0,.29,0,.57,0,.86,0,.08,0,.17,0,.25v2.41h0q0,2.95,0,5.89A2.12,2.12,0,0,0,4.85,44,3.52,3.52,0,0,0,6,44.14a6.35,6.35,0,0,0,1.43-.08l.33-.1A2.37,2.37,0,0,0,9.24,41.7c0-.67,0-1.35,0-2q0-1.7,0-3.39h0V33.87c0-.42,0-.83,0-1.25v-.41l0,0,.07.1,0,.06A9,9,0,0,1,10.51,35c.07.26.13.52.18.78l0,.2,0,.13a.94.94,0,0,0,1,.71.85.85,0,0,0,.81-1,11.6,11.6,0,0,0-1.32-3.86A5.23,5.23,0,0,0,9.43,29.94Z"/><path class="cls-1" d="M26.72,30.52a10.13,10.13,0,0,1,1.44-1.19c0-.58,0-1.23,0-1.92a6.43,6.43,0,0,0,4.19-5.82,6.68,6.68,0,0,0-5.89-6.31c-1.14-3.22-3-5.61-6-5.61-4.11,0-4.27,1.23-5.38,3.26h0c-1.12,2-3.46,14-3.46,14a1.28,1.28,0,0,0,1.07,1.53l.32,0a1.41,1.41,0,0,0,1.39-1l3.17-11.82L16,32.43h3.34c0,.63,0,1.39,0,1.44v2.41h0q0,2.95,0,5.89A2.12,2.12,0,0,0,20.88,44a3.51,3.51,0,0,0,1.13.17,6.33,6.33,0,0,0,1.43-.08l.33-.1A2.26,2.26,0,0,0,25,42.77a10,10,0,0,1-1.33-5A10.18,10.18,0,0,1,26.72,30.52Zm-.87-11.15a1.52,1.52,0,0,1,1.47,1.08,1.52,1.52,0,0,1,1.47-1.08,1.55,1.55,0,0,1,1.64,1.42c0,1.66-3.11,3.13-3.11,3.13s-3.11-1.47-3.11-3.13A1.54,1.54,0,0,1,25.85,19.37Z"/><path class="cls-1" d="M40.09,31.6a8.68,8.68,0,0,0-12.3,0,8.67,8.67,0,0,0-2.57,6.21,8.52,8.52,0,0,0,2.56,6.08,8.68,8.68,0,0,0,12.3,0,8.67,8.67,0,0,0,2.57-6.21A8.52,8.52,0,0,0,40.09,31.6Zm-1,7.53H35.33v3.78H32.55V39.13H28.77V36.35h3.78V32.57h2.78v3.78h3.78Z"/></g></g></svg>