<svg id="Layer_1" data-name="Layer 1" xmlns="http://www.w3.org/2000/svg" viewBox="0 0 41.22 40.15"><defs><style>.cls-1,.cls-2{fill:#fff;}.cls-2{opacity:0.59;}</style></defs><title>ARC icon-01-1</title><rect class="cls-1" x="9.95" y="17.92" width="13.4" height="19.49" transform="translate(-11.03 6.13) rotate(-26.21)"/><polygon class="cls-1" points="23.57 29.93 10.88 16.28 10.68 16.38 7.29 19.52 14.56 34.38 23.57 29.93"/><polygon class="cls-1" points="13.48 37.75 4.97 20.56 0 25.07 14.3 40.15 21.82 33.32 13.48 37.75"/><path class="cls-2" d="M26.1,33.18l-4.65-9.56a13.53,13.53,0,0,0-4.74,4.51l6.08,6.68Z" transform="translate(-0.52 -4.07)"/><path class="cls-1" d="M21.67,40.42a17.18,17.18,0,0,0,6.82,1c7.33,0,13.25-2.91,13.25-8.34-.05-4.55-4.18-9.41-9.82-10.9,2.32-2.09,3.8-6.05,3.8-9.79C35.78,7,32.49,4.07,28.4,4.07S21.08,7,21.08,12.42a14,14,0,0,0,3.8,9.77,14.68,14.68,0,0,0-1.73.59l5.49,11.27L27,34.87" transform="translate(-0.52 -4.07)"/></svg>