<svg xmlns="http://www.w3.org/2000/svg" viewBox="0 0 39.95 42.75"><defs><style>.cls-1,.cls-2{fill:#fff;}.cls-2{stroke:#63c669;stroke-miterlimit:10;stroke-width:1.59px;}</style></defs><title>ARC icon-02-2</title><g id="Layer_1" data-name="Layer 1"><rect class="cls-1" x="15.23" y="7.31" width="21.74" height="14.94" transform="matrix(0.51, -0.86, 0.86, 0.51, -1.3, 28.09)"/><polygon class="cls-1" points="20.27 2.2 13.4 0.63 8.54 21.81 18.14 24.02 10.38 19.6 20.27 2.2"/><path class="cls-2" d="M9.72,40.2" transform="translate(-1.38 -1.62)"/></g><g id="Layer_3" data-name="Layer 3"><polygon class="cls-1" points="0 29.15 3.82 42.75 8.26 41.76 4.35 28.15 0 29.15"/><path class="cls-1" d="M38.61,26.83l-6.67,4.33h0c-.12.37-1.47,3.62-11,5.38l-.23-1.25c6.26-1.15,8.67-2.93,9.55-3.88a3,3,0,0,0-1.82-1.5c-2-.33-7.77,1.47-7.77,1.47a31.18,31.18,0,0,0-6.16-2.13A28.36,28.36,0,0,0,7.9,30.3L11.22,41a31.26,31.26,0,0,1,5.64.17C28.92,42.49,33.24,37,33.24,37l7.91-7.39C42.17,27.05,38.61,26.83,38.61,26.83Z" transform="translate(-1.38 -1.62)"/></g></svg>