<?xml version="1.0" encoding="utf-8"?>
<!-- Generator: Adobe Illustrator 21.1.0, SVG Export Plug-In . SVG Version: 6.00 Build 0)  -->
<svg version="1.1" id="Layer_1" xmlns="http://www.w3.org/2000/svg" xmlns:xlink="http://www.w3.org/1999/xlink" x="0px" y="0px"
	 viewBox="0 0 1207.6 193.6" style="enable-background:new 0 0 1207.6 193.6;" xml:space="preserve">
<style type="text/css">
	.st0{fill:#DBDBDB;}
	.st1{fill:#CCCCCC;}
	.st2{fill:#FFFFFF;}
	.st3{font-family:'Verdana';}
	.st4{font-size:127.05px;}
	.st5{font-size:126.6px;}
</style>
<path class="st0" d="M11.7,0.5h94c6.4,0,11.5,5.1,11.5,11.5v169.6c0,6.4-5.1,11.5-11.5,11.5h-94c-6.4,0-11.5-5.1-11.5-11.5V12
	C0.2,5.7,5.4,0.5,11.7,0.5z"/>
<path class="st1" d="M105.7,1c6.1,0,11,4.9,11,11v169.6c0,6.1-4.9,11-11,11h-94c-6.1,0-11-4.9-11-11V12c0-6.1,4.9-11,11-11H105.7
	 M105.7,0h-94c-6.6,0-12,5.4-12,12v169.6c0,6.6,5.4,12,12,12h94c6.6,0,12-5.4,12-12V12C117.7,5.4,112.3,0,105.7,0z"/>
<text transform="matrix(1.02 0 0 1 7.6006 141.9404)" class="st2 st3 st4">D</text>
<path class="st0" d="M338.7,0.5h102c6.4,0,11.5,5.1,11.5,11.5v168.9c0,6.4-5.1,11.5-11.5,11.5h-102c-6.4,0-11.5-5.1-11.5-11.5V12
	C327.2,5.6,332.4,0.5,338.7,0.5z"/>
<path class="st1" d="M440.7,1c6.1,0,11,4.9,11,11v168.9c0,6.1-4.9,11-11,11h-102c-6.1,0-11-4.9-11-11V12c0-6.1,4.9-11,11-11H440.7
	 M440.7,0h-102c-6.6,0-12,5.4-12,12v168.9c0,6.6,5.4,12,12,12h102c6.6,0,12-5.4,12-12V12C452.7,5.4,447.3,0,440.7,0z"/>
<text transform="matrix(1.0118 0 0 1 336.0508 141.4102)" class="st2 st3 st5">M</text>
<path class="st0" d="M150.7,0.5h94c6.4,0,11.5,5.1,11.5,11.5v169.6c0,6.4-5.1,11.5-11.5,11.5h-94c-6.4,0-11.5-5.1-11.5-11.5V12
	C139.2,5.7,144.4,0.5,150.7,0.5z"/>
<path class="st1" d="M244.7,1c6.1,0,11,4.9,11,11v169.6c0,6.1-4.9,11-11,11h-94c-6.1,0-11-4.9-11-11V12c0-6.1,4.9-11,11-11H244.7
	 M244.7,0h-94c-6.6,0-12,5.4-12,12v169.6c0,6.6,5.4,12,12,12h94c6.6,0,12-5.4,12-12V12C256.7,5.4,251.3,0,244.7,0z"/>
<text transform="matrix(1.02 0 0 1 150.6006 141.9404)" class="st2 st3 st4">D</text>
<path class="st0" d="M488.7,0.5h103c6.4,0,11.5,5.1,11.5,11.5v168.9c0,6.4-5.1,11.5-11.5,11.5h-103c-6.4,0-11.5-5.1-11.5-11.5V12
	C477.2,5.6,482.4,0.5,488.7,0.5z"/>
<path class="st1" d="M591.7,1c6.1,0,11,4.9,11,11v168.9c0,6.1-4.9,11-11,11h-103c-6.1,0-11-4.9-11-11V12c0-6.1,4.9-11,11-11H591.7
	 M591.7,0h-103c-6.6,0-12,5.4-12,12v168.9c0,6.6,5.4,12,12,12h103c6.6,0,12-5.4,12-12V12C603.7,5.4,598.3,0,591.7,0z"/>
<text transform="matrix(1.011 0 0 1 486.1299 141.4102)" class="st2 st3 st5">M</text>
<path class="st0" d="M681.7,0.6h93.6c6.4,0,11.5,5.1,11.5,11.5V181c0,6.4-5.1,11.5-11.5,11.5h-93.6c-6.4,0-11.5-5.1-11.5-11.5V12.1
	C670.2,5.7,675.4,0.6,681.7,0.6z"/>
<path class="st1" d="M775.3,1.1c6.1,0,11,4.9,11,11l0,0V181c0,6.1-4.9,11-11,11h-93.6c-6.1,0-11-4.9-11-11V12.1c0-6.1,4.9-11,11-11
	L775.3,1.1 M775.3,0.1h-93.6c-6.6,0-12,5.4-12,12V181c0,6.6,5.4,12,12,12h93.6c6.6,0,12-5.4,12-12V12.1
	C787.3,5.5,781.9,0.1,775.3,0.1z"/>
<text transform="matrix(1.02 0 0 1 688.4297 141.9404)" class="st2 st3 st5">Y</text>
<path class="st0" d="M821.7,0.6h93.6c6.4,0,11.5,5.1,11.5,11.5V181c0,6.4-5.1,11.5-11.5,11.5h-93.6c-6.4,0-11.5-5.1-11.5-11.5V12.1
	C810.2,5.7,815.4,0.6,821.7,0.6z"/>
<path class="st1" d="M915.3,1.1c6.1,0,11,4.9,11,11l0,0V181c0,6.1-4.9,11-11,11h-93.6c-6.1,0-11-4.9-11-11V12.1c0-6.1,4.9-11,11-11
	L915.3,1.1 M915.3,0.1h-93.6c-6.6,0-12,5.4-12,12V181c0,6.6,5.4,12,12,12h93.6c6.6,0,12-5.4,12-12V12.1
	C927.3,5.5,921.9,0.1,915.3,0.1z"/>
<text transform="matrix(1.02 0 0 1 829.4297 141.9404)" class="st2 st3 st5">Y</text>
<path class="st0" d="M961.7,0.6h93.6c6.4,0,11.5,5.1,11.5,11.5V181c0,6.4-5.1,11.5-11.5,11.5h-93.6c-6.4,0-11.5-5.1-11.5-11.5V12.1
	C950.2,5.7,955.4,0.6,961.7,0.6z"/>
<path class="st1" d="M1055.3,1.1c6.1,0,11,4.9,11,11l0,0V181c0,6.1-4.9,11-11,11h-93.6c-6.1,0-11-4.9-11-11V12.1c0-6.1,4.9-11,11-11
	L1055.3,1.1 M1055.3,0.1h-93.6c-6.6,0-12,5.4-12,12V181c0,6.6,5.4,12,12,12h93.6c6.6,0,12-5.4,12-12V12.1
	C1067.3,5.5,1061.9,0.1,1055.3,0.1z"/>
<text transform="matrix(1.02 0 0 1 970.4297 141.9404)" class="st2 st3 st5">Y</text>
<path class="st0" d="M1101.7,0.6h93.6c6.4,0,11.5,5.1,11.5,11.5V181c0,6.4-5.1,11.5-11.5,11.5h-93.6c-6.4,0-11.5-5.1-11.5-11.5V12.1
	C1090.2,5.7,1095.4,0.6,1101.7,0.6z"/>
<path class="st1" d="M1195.3,1.1c6.1,0,11,4.9,11,11l0,0V181c0,6.1-4.9,11-11,11h-93.6c-6.1,0-11-4.9-11-11V12.1c0-6.1,4.9-11,11-11
	L1195.3,1.1 M1195.3,0.1h-93.6c-6.6,0-12,5.4-12,12V181c0,6.6,5.4,12,12,12h93.6c6.6,0,12-5.4,12-12V12.1
	C1207.3,5.5,1201.9,0.1,1195.3,0.1z"/>
<text transform="matrix(1.02 0 0 1 1109.4297 141.9404)" class="st2 st3 st5">Y</text>
</svg>
