<svg xmlns="http://www.w3.org/2000/svg" viewBox="0 0 33.5 46.25"><defs><style>.cls-1,.cls-3{fill:#fff;}.cls-2{fill:none;stroke:#fff;stroke-miterlimit:10;stroke-width:2.5px;}.cls-3{isolation:isolate;font-size:12px;font-family:Verdana-Bold, Verdana;font-weight:700;}</style></defs><title>export-lightAsset 1</title><g id="Layer_2" data-name="Layer 2"><g id="Layer_1-2" data-name="Layer 1"><path class="cls-1" d="M29,33.74a5.27,5.27,0,0,0-7.45-.21l-.21.21h0a5.74,5.74,0,0,0-1.6,4,5.64,5.64,0,0,0,1.6,3.94,5.27,5.27,0,0,0,7.45.21l.21-.21h0a5.74,5.74,0,0,0,1.6-4A5.64,5.64,0,0,0,29,33.74Zm-3.84,7.53L22.35,38h1.82V34.2h2V38H28L25.2,41.25m.28,1.27h0"/><path class="cls-2" d="M27.68,45H5.82a4.58,4.58,0,0,1-4.57-4.57V5.82A4.58,4.58,0,0,1,5.82,1.25H21.25c.25,14.7-4.5,12.2,11,12.2v27A4.58,4.58,0,0,1,27.68,45Z"/><text class="cls-3" transform="translate(11.75 30.2)">X</text><line class="cls-2" x1="21.62" y1="0.84" x2="32.25" y2="13.45"/></g></g></svg>