<svg xmlns="http://www.w3.org/2000/svg" viewBox="0 0 44.35 39.2"><defs><style>.cls-1{fill:#fff;}</style></defs><title>Asset 6</title><g id="Layer_2" data-name="Layer 2"><g id="Layer_1-2" data-name="Layer 1"><path class="cls-1" d="M25.82,19c2.41-2.19,4-6.34,4-10.26C29.87,3.05,26.42,0,22.13,0s-7.74,3.05-7.74,8.76c0,3.92,1.63,8.07,4,10.26C12.52,20.58,8.18,25.66,8.18,30.44c.1,5.71,6.31,8.76,14,8.76s13.9-3.06,13.9-8.76C36.08,25.66,31.74,20.58,25.82,19Z"/><path class="cls-1" d="M38.59,18.22a8.08,8.08,0,0,0,2.27-5.76c0-3.23-1.92-5-4.34-5s-4.34,1.73-4.34,5a8.29,8.29,0,0,0,2.27,5.76,8.32,8.32,0,0,0-3.55,2c3.4,2.31,5.77,5.82,6.11,9.4,4.09-.17,7.34-1.84,7.34-5C44.35,22,41.89,19.08,38.59,18.22Z"/><path class="cls-1" d="M13.45,20.18a8.6,8.6,0,0,0-3.55-2,8.08,8.08,0,0,0,2.27-5.77c0-3.23-1.92-5-4.34-5s-4.34,1.73-4.34,5a8.29,8.29,0,0,0,2.27,5.77C2.46,19.08,0,22,0,24.62c0,3.11,3.25,4.79,7.34,4.9C7.69,26,10.05,22.48,13.45,20.18Z"/></g></g></svg>