<svg xmlns="http://www.w3.org/2000/svg" viewBox="0 0 25.67 39.18"><defs><style>.cls-1{fill:#fff;}</style></defs><title>Asset 7</title><g id="Layer_2" data-name="Layer 2"><g id="Layer_1-2" data-name="Layer 1"><path class="cls-1" d="M23,5.4H21.62V6.75a2.7,2.7,0,0,1-2.71,2.71H6.76A2.7,2.7,0,0,1,4.05,6.75V5.41H2.7A2.7,2.7,0,0,0,0,8.11V36.47a2.7,2.7,0,0,0,2.7,2.71H23a2.7,2.7,0,0,0,2.7-2.71V8.11A2.7,2.7,0,0,0,23,5.4Zm-14.86,27H4.05V28.37H8.11Zm0-7.39H4.05V21H8.11Zm0-7.39H4.05V13.59H8.11Zm13.51,6H10.81V22.33H21.62Zm0-7.39H10.81V14.94H21.62Z"/><circle class="cls-1" cx="12.83" cy="3.38" r="0.68"/><path class="cls-1" d="M6.75,8.11H18.92a1.34,1.34,0,0,0,1.34-1.35V5.4a1.35,1.35,0,0,0-1.34-1.35H16.21V2.7A2.7,2.7,0,0,0,13.5,0H12.17A2.71,2.71,0,0,0,9.46,2.7V4.05H6.75A1.34,1.34,0,0,0,5.4,5.4V6.76A1.35,1.35,0,0,0,6.75,8.11Zm6-6.5A1.8,1.8,0,1,1,11,3.4,1.8,1.8,0,0,1,12.76,1.6Z"/><rect class="cls-1" x="5.4" y="22.33" width="1.35" height="1.35"/><rect class="cls-1" x="5.4" y="29.72" width="1.35" height="1.35"/><rect class="cls-1" x="5.4" y="14.89" width="1.35" height="1.35"/></g></g></svg>