<svg xmlns="http://www.w3.org/2000/svg" viewBox="0 0 28.72 39.18"><defs><style>.cls-1{fill:#fff;}</style></defs><title>Asset 5</title><g id="Layer_2" data-name="Layer 2"><g id="Layer_1-2" data-name="Layer 1"><path class="cls-1" d="M5.55,25a3.06,3.06,0,0,0,3.22-2.85,3.06,3.06,0,0,0-3.15-2.86,3.06,3.06,0,0,0-3.28,2.86A3.05,3.05,0,0,0,5.55,25Z"/><path class="cls-1" d="M8.37,26.57a3.26,3.26,0,0,0-1.7-.46h0a.67.67,0,0,0-.25,0,2.08,2.08,0,0,1-1.62,0,.74.74,0,0,0-.25-.06H4.36a3.22,3.22,0,0,0-1.54.45,4.64,4.64,0,0,0-1.64,1.77A10.28,10.28,0,0,0,0,31.77a.76.76,0,0,0,.72.87A.84.84,0,0,0,1.65,32l0-.14c.05-.28.11-.56.19-.84a8,8,0,0,1,1-2.3l.1-.14,0,0v.49c0,.25,0,.51,0,.76v2.36H3q0,2.61,0,5.23A1.88,1.88,0,0,0,4.3,39a3.12,3.12,0,0,0,1,.15,5.64,5.64,0,0,0,1.27-.07L6.87,39a2.1,2.1,0,0,0,1.34-2c0-.6,0-1.2,0-1.79q0-1.51,0-3h0V30.07q0-.55,0-1.11V28.6l0,0,.07.09,0,.05a8,8,0,0,1,1,2.3c.06.23.11.46.16.69l0,.17,0,.12a.84.84,0,0,0,.93.63.76.76,0,0,0,.72-.87A10.29,10.29,0,0,0,10,28.34,4.63,4.63,0,0,0,8.37,26.57Z"/><path class="cls-1" d="M16,6.52a4.27,4.27,0,0,0,2,.53,3.77,3.77,0,0,0,4-3.54,3.77,3.77,0,0,0-4-3.52,3.76,3.76,0,0,0-4,3.52s.28,2.56-.92,3C12.29,6.73,14.32,6.63,16,6.52Z"/><path class="cls-1" d="M28.72,19.16a5.93,5.93,0,0,0-5.23-5.6c-1-2.85-2.65-5-5.35-5-3.65,0-3.79,1.09-4.77,2.9h0c-1,1.8-3.07,12.39-3.07,12.39a1.14,1.14,0,0,0,.95,1.36l.29,0a1.25,1.25,0,0,0,1.24-.88L15.59,13.9,14.24,28.79h3v3.42h0q0,2.61,0,5.23A1.88,1.88,0,0,0,18.53,39a3.12,3.12,0,0,0,1,.15,5.64,5.64,0,0,0,1.27-.07L21.1,39a2.11,2.11,0,0,0,1.34-2c0-.6,0-1.2,0-1.79q0-1.51,0-3h0V28.79h2.44s.14-1.87.11-4.46A5.71,5.71,0,0,0,28.72,19.16Zm-4.36,2.31-.11.05-.11-.05c-.12-.06-2.91-1.4-2.91-3a1.63,1.63,0,0,1,1.72-1.53,1.59,1.59,0,0,1,1.31.65,1.59,1.59,0,0,1,1.3-.65,1.63,1.63,0,0,1,1.72,1.53C27.27,20.07,24.48,21.42,24.36,21.47Z"/></g></g></svg>