<svg xmlns="http://www.w3.org/2000/svg" viewBox="0 0 33.91 31.99"><defs><style>.cls-1{fill:#fff;}</style></defs><title>Asset 4</title><g id="Layer_2" data-name="Layer 2"><g id="Layer_1-2" data-name="Layer 1"><path class="cls-1" d="M30.52,6.82H27.36V3.39A3.38,3.38,0,0,0,24,0h-14A3.38,3.38,0,0,0,6.55,3.39V6.82H3.39A3.39,3.39,0,0,0,0,10.2v12a3.38,3.38,0,0,0,3.39,3.39H6.55v3A3.38,3.38,0,0,0,9.94,32H24a3.38,3.38,0,0,0,3.39-3.39v-3h3.16a3.38,3.38,0,0,0,3.39-3.39v-12A3.39,3.39,0,0,0,30.52,6.82ZM8.91,3.34H9a1,1,0,0,1,1-1H24a1,1,0,0,1,1,1V6.77h-16ZM25,28.61a1,1,0,0,1-1,1H9.94a1,1,0,0,1-1-1V19.25H25Zm5.57-5.44H27.4V16.84H6.55v6.33H3.39a1,1,0,0,1-1-1v-12a1,1,0,0,1,1-1H30.52a1,1,0,0,1,1,1v12h0A1,1,0,0,1,30.57,23.17Z"/><circle class="cls-1" cx="26.38" cy="12.3" r="1.02"/><path class="cls-1" d="M11.27,22.46H22.64a.54.54,0,0,0,.58-.58.59.59,0,0,0-.58-.58H11.27a.58.58,0,0,0,0,1.16Z"/><path class="cls-1" d="M23.13,11.72H20.72a.58.58,0,1,0,0,1.16h2.41a.54.54,0,0,0,.58-.58A.59.59,0,0,0,23.13,11.72Z"/><path class="cls-1" d="M11.27,25H22.64a.54.54,0,0,0,.58-.58.59.59,0,0,0-.58-.58H11.27a.58.58,0,0,0,0,1.16Z"/><path class="cls-1" d="M22.64,26.38H17.56a.58.58,0,1,0,0,1.16h5.08a.56.56,0,0,0,.58-.58A.59.59,0,0,0,22.64,26.38Z"/></g></g></svg>